<?xml version="1.0" encoding="UTF-8"?><svg xmlns="http://www.w3.org/2000/svg" viewBox="0 0 442.86 468.39"><defs><style>.d{fill:#009640;}.e{fill:#1d1d1b;}</style></defs><g id="a"/><g id="b"><g><path class="d" d="M248.67,271.75c11.42-26.51,24.94-52.11,40.38-76.49,7.77-12.27,16.11-24.4,20.92-38.11,2.37-6.74,3.89-13.88,7.56-20.01,3.4-5.67,8.45-10.14,13.66-14.21,12.16-9.49,25.62-17.29,39.9-23.12-12.17,31.8-24.34,63.6-36.51,95.4-7.36,19.24-14.73,38.48-22.72,57.46-4.87,11.57-9.97,23.04-15.3,34.4-9.17,19.55-21.58,40.87-42.65,45.61"/><path class="e" d="M250.42,272.78c6.32-13.22,12.67-26.4,19.6-39.32,6.85-12.78,14.19-25.29,22.02-37.49s15.51-23.51,20.45-36.73c2.36-6.3,3.74-13.01,6.93-18.97s7.73-10.06,12.7-14.04c12.01-9.62,25.59-17.52,39.82-23.36l-3.92-3.92-20.3,53.05c-6.74,17.63-13.47,35.26-20.24,52.88-6.64,17.29-13.36,34.55-20.65,51.57-3.66,8.54-7.44,17.03-11.35,25.45-3.08,6.64-6.24,13.24-9.97,19.54s-7.28,11.35-12.11,16.26c-2.35,2.39-4.67,4.4-7.25,6.15-1.34,.91-2.71,1.76-4.13,2.53s-2.84,1.4-4.16,1.93c-1.53,.6-3.08,1.3-4.69,1.67-3.5,.8-2.02,6.18,1.48,5.38,1.53-.35,3.38-.62,5-1.19,1.73-.6,3.42-1.34,5.06-2.16,3.15-1.57,6.03-3.57,8.75-5.8,5.44-4.46,9.94-9.99,13.86-15.79s7.38-12.24,10.49-18.67c3.91-8.07,7.58-16.27,11.18-24.48,7.63-17.38,14.68-35,21.52-52.7,6.88-17.79,13.66-35.63,20.48-53.44l20.57-53.75,2.58-6.75c.82-2.14-1.74-4.81-3.92-3.92-13.3,5.45-25.9,12.43-37.45,20.99-5.46,4.05-10.93,8.31-15.14,13.69-4.53,5.79-6.81,12.53-8.94,19.47-2.02,6.61-4.53,12.91-7.76,19.03-3.29,6.24-7.05,12.21-10.82,18.16-7.89,12.45-15.44,25.09-22.4,38.08-7.82,14.6-15.07,29.59-21.03,45.04-.82,2.13,2.72,3.64,3.71,1.56h0Z"/></g><g><path class="d" d="M149.97,269.88c-16.03-23.39-31.16-50.67-26.29-78.61,2.61-15,10.78-28.38,18.93-41.24,7.01-11.06,14.16-22.1,22.96-31.8,14.42-15.88,32.74-27.59,50.83-39.1,23.72-15.1,49.98-30.81,77.89-27.45,4.15,.5,8.76,1.78,10.76,5.45,2.99,5.47-1.65,11.86-5.98,16.35l-73.21,76.03c-7.17,7.45-14.35,14.9-20.82,22.96-25.69,32-39.34,73.43-37.72,114.44,.22-3.15,.44-6.3,.66-9.46"/><path class="e" d="M151.25,269.13c-5.81-7.99-10.88-16.52-15.35-25.32s-8-17.79-9.98-27.33-2.1-19.1,.12-28.44c2.28-9.59,6.73-18.46,11.71-26.91s10.51-17.09,16.22-25.31,12.2-16.24,19.6-23.25c14.14-13.4,30.85-23.77,47.27-34.09s33.61-20.5,52.82-24.12c4.59-.87,9.27-1.29,13.94-1.21,4.08,.07,8.81,.16,12.54,2.04,1.59,.8,2.97,1.97,3.59,3.69,.65,1.81,.29,3.77-.43,5.5-1.82,4.35-5.5,7.67-8.71,10.99-15.32,15.88-30.64,31.77-45.96,47.67l-22.97,23.84c-7.35,7.63-14.75,15.24-21.44,23.47-11.83,14.56-21.17,30.99-27.79,48.53s-10.39,35.85-11.16,54.42c-.19,4.55-.19,9.1-.01,13.65,.1,2.66,3.92,2.62,4.1,0,.22-3.15,.23-6.31,.45-9.46,.16-2.37-3.53-2.36-3.69,0-.22,3.15-.64,6.3-.86,9.46h4.1c-.72-19.01,1.79-38.05,7.32-56.25,5.48-18.06,13.94-35.19,24.99-50.49,6.11-8.46,13.12-16.19,20.3-23.74,7.7-8.09,15.49-16.11,23.24-24.17,15.59-16.2,31.19-32.41,46.77-48.62,3.68-3.83,7.66-7.52,10.99-11.66,2.69-3.34,5.37-7.56,4.88-12.05-1.08-9.95-13.66-10.62-21.34-10.6-19.9,.05-38.57,8.74-55.4,18.6-8.65,5.06-17.08,10.51-25.47,15.98s-16.52,11.05-24.27,17.26-15.17,13.28-21.54,21.1-12.35,16.9-17.95,25.74-10.73,16.99-14.69,26.22-6.26,18.86-6.1,28.88c.31,19.92,9.19,38.7,19.64,55.23,2.61,4.12,5.3,8.2,7.94,12.3,1.05,1.63,3.69,.03,2.57-1.5h0Z"/></g><g><path class="d" d="M175.38,299.5c-10.98-28.57-22.2-57.57-40.73-81.93-8.59-11.29-18.69-21.5-25.98-33.67-10.29-17.18-14.39-37.26-17.94-56.97-1.92-10.69-3.95-21.91-10.71-30.41-11.17-14.02-31.95-16.71-44.5-29.51-1.2-1.22-2.39-2.91-1.77-4.5,.61-1.55,2.55-2.01,4.21-2.2,29.04-3.24,59.27,13.08,72.48,39.14,9.93,19.59,10.65,43.05,21.7,62.03,12.17,20.9,35.33,33.69,47.22,54.76,13.54,23.98,9.89,53.96,1.83,80.29"/><path class="e" d="M176.39,299.22c-7.43-19.76-14.63-39.77-24.58-58.45-4.96-9.32-10.59-18.24-17-26.64s-13.78-16.32-19.9-25.09-10.47-18.09-13.71-28.08c-3.25-10.05-5.39-20.42-7.3-30.8-1.8-9.82-3.2-19.94-7.8-28.94-4.17-8.16-11.12-13.89-18.99-18.3-7.42-4.16-15.39-7.33-22.53-12.01-1.69-1.11-3.31-2.3-4.83-3.62-.8-.7-1.59-1.42-2.32-2.19-.31-.33-.62-.65-.85-1.04-.11-.19-.15-.28-.23-.42-.38-.69,.07-.23-.11-.05-.26,.25,.32-.22,.45-.27,.24-.09,.81-.2,1.16-.26,.81-.13,2.04-.21,3.03-.27,2.18-.14,4.37-.17,6.55-.1,16.88,.56,33.53,7.65,45.93,19.11,6.38,5.9,11.51,12.81,15.25,20.69,4.27,9.01,6.62,18.81,9.1,28.43s5.23,19.75,9.86,28.87c4.28,8.44,10.4,15.77,16.97,22.51,12.81,13.14,27.87,24.68,35.11,41.92,7.51,17.88,6.37,38.46,2.3,57.21-.51,2.34-1.05,4.68-1.63,7.01s-.98,4.97-1.71,7.37c-1.02,3.35,4.21,4.78,5.23,1.44,.75-2.47,1.8-4.86,2.51-7.37s1.35-5.04,1.93-7.59c1.15-5.11,2.04-10.27,2.66-15.48,1.23-10.21,1.11-20.59-.84-30.7-1.89-9.82-5.78-19.22-11.54-27.39s-12.22-14.49-19.06-21.06-13.65-12.85-19.39-20.24-9.91-16.5-12.81-25.74c-3.09-9.85-5.23-19.97-8.48-29.77-3.11-9.37-7.35-18.13-13.51-25.87-11.13-13.97-27.55-23.84-45.03-27.38-4.45-.9-9.01-1.43-13.55-1.51-2.18-.04-4.37,.03-6.55,.21s-4.82,.27-6.77,1.57c-2.63,1.76-3.09,5.01-1.57,7.68,1.14,1.99,3.06,3.61,4.81,5.05,3.44,2.84,7.21,5.19,11.13,7.29,7.68,4.11,15.88,7.34,23.01,12.42,3.36,2.4,6.41,5.32,8.71,8.76,2.78,4.16,4.56,8.82,5.87,13.62,2.74,10.02,3.98,20.44,6.22,30.58s5.29,20.84,9.69,30.65c9,20.05,25.8,34.7,37.99,52.64s21.29,37.57,29.3,57.45c1.97,4.88,3.89,9.78,5.82,14.68,.48,1.23,2.49,.71,2.01-.55h0Z"/></g><g><path class="d" d="M165.27,191.59c-13.11-11.64-19.25-29.28-22.17-46.57-3-17.75-3.05-36.48,3.66-53.18,11.89-29.55,42.23-47.3,59.63-73.97,1.76-2.7,3.44-5.68,3.36-8.9s-2.65-6.58-5.86-6.36c.73,9.27,10.14,15,15.33,22.71,7.99,11.86,5.36,28.16-1.34,40.79s-16.89,23.06-24.54,35.14c-9.93,15.7-15.4,34.18-15.62,52.75-.27,22.7,7.11,44.88,7.98,67.56"/><path class="e" d="M166.53,190.33c-10.89-9.84-16.69-23.73-19.89-37.79-3.51-15.46-4.79-32.08-1.44-47.68,3.01-14.02,10.28-26.19,19.53-36.99,8.97-10.47,19.23-19.72,28.63-29.79,4.72-5.06,9.23-10.33,13.23-15.99,2.15-3.04,4.51-6.29,5.37-9.98s.02-7.79-3-10.28c-1.46-1.2-3.17-1.89-5.08-1.84-1.31,.03-2.73,1.17-2.6,2.6,.6,6.88,4.96,12,9.48,16.86,2.11,2.26,4.29,4.5,6.03,7.07,1.94,2.86,3.21,6.02,3.91,9.4,3.02,14.5-4.49,28.71-12.67,40.08-4.61,6.41-9.68,12.47-14.23,18.92s-8.58,13.72-11.67,21.24c-6.24,15.17-8.61,31.63-7.41,47.96,1.26,17.17,5.6,33.93,7.16,51.06,.19,2.14,.54,4.24,.81,6.37,.21,1.62,1.24,3.02,3.02,3.02s2.94-1.38,3.02-3.02c.41-8.71-1.22-17.46-2.67-26.03s-3.02-16.65-4.01-25.06-1.33-16.68-.53-25.01c.75-7.76,2.49-15.47,5.05-22.85s6-14.34,10.21-20.87c4.32-6.69,9.35-12.88,14.08-19.28,8.99-12.14,17.01-26.07,16.08-41.73-.44-7.39-3.02-14.13-7.71-19.86-3.89-4.74-9.31-8.8-11.77-14.57-.47-1.11-.85-2.49-.97-3.71l-2.6,2.6c2.62-.09,3.66,3.26,3.11,5.55-.81,3.41-3.14,6.42-5.13,9.23-3.9,5.51-8.34,10.61-12.95,15.53-9.28,9.92-19.33,19.11-28.08,29.52-9.21,10.96-16.6,23.21-19.73,37.32-3.49,15.73-2.39,32.26,.9,47.93,2.95,14.05,8.27,28.16,18.16,38.84,1.21,1.31,2.49,2.55,3.83,3.73,1.71,1.51,4.23-.98,2.52-2.52h0Z"/></g><g><path class="d" d="M192.52,195.18c.93,9.63-4.09,19.59-12.39,24.57"/><path class="e" d="M191.72,195.18c.49,9.42-4.57,18.19-12.26,23.42-1.4,.95-.18,3.12,1.34,2.29,8.96-4.88,13.78-15.75,12.51-25.71-.12-.99-1.65-1.05-1.59,0h0Z"/></g><g><path class="d" d="M226.95,442.56c16.99-32.91,49.49-57.37,85.81-64.6,18.79-3.74,38.22-3.07,57.07-6.47,24.92-4.48,48.49-16.18,67.13-33.32,1.09-1,2.21-2.11,2.52-3.56,.49-2.32-1.28-4.47-3.08-6.03-13.75-11.9-34.05-11.74-52.05-9.14-38.01,5.49-74.47,18.85-109.46,34.67-16.22,7.33-32.58,15.48-44.73,28.5"/><path class="e" d="M229.25,443.9c6.47-12.46,15.11-23.67,25.43-33.18,10.28-9.48,22.31-17.16,35.17-22.64,6.34-2.7,12.95-4.82,19.65-6.39,8.3-1.94,16.78-2.88,25.27-3.58,17.36-1.43,34.72-2.3,51.48-7.44,15.07-4.62,29.4-11.81,42.04-21.24,3.23-2.41,6.45-4.85,9.47-7.51,1.51-1.34,3.2-2.7,4.19-4.5,1.24-2.26,1.18-4.79,.11-7.09-1.62-3.48-5.4-5.96-8.55-7.95s-6.45-3.45-9.91-4.61c-14.52-4.86-30.19-3.4-45.01-.95-17.23,2.85-34.21,7.21-50.81,12.63-16.72,5.46-33.08,11.99-49.18,19.07-14.87,6.54-29.76,13.41-42.49,23.67-1.47,1.19-2.91,2.43-4.29,3.73-1.46,1.37-2.54,3.02-3.9,4.46-2.79,2.97,1.68,7.46,4.48,4.48,1.29-1.37,3.05-2.55,4.5-3.86s2.85-2.5,4.33-3.68c2.69-2.16,5.94-4.4,9.07-6.38,6.6-4.16,13.58-7.68,20.63-11,15.22-7.17,30.77-13.73,46.58-19.48,16.06-5.84,32.45-10.81,49.18-14.34,4.18-.88,8.38-1.66,12.59-2.35s7.24-1.14,11.22-1.54c7.13-.72,14.32-1.08,21.46-.25,.77,.09,1.01,.12,1.95,.27,.88,.14,1.75,.3,2.62,.48,1.72,.36,3.43,.8,5.11,1.35,3.17,1.04,5.9,2.3,8.84,4.18,1.52,.97,2.56,1.75,3.85,2.96,.53,.49,1.15,1.15,1.45,1.63,.21,.32,.27,.43,.33,.6,.03,.07,.13,.78,.12,.48,0-.14,.08-.33-.04,0-.14,.4-.5,.84-1.01,1.34-.73,.73-1.52,1.42-2.29,2.1-1.4,1.25-2.8,2.49-4.22,3.72-5.67,4.88-12.1,9.02-18.61,12.68-6.56,3.68-13.42,6.82-20.52,9.32-7.37,2.6-14.97,4.56-22.68,5.83-8.63,1.43-17.37,2.03-26.09,2.71-8.92,.69-17.87,1.46-26.68,3.07-6.95,1.27-13.77,3.16-20.38,5.65-13.22,4.98-25.51,12.1-36.46,21.03s-20.17,19.27-27.57,31.03c-1.81,2.87-3.48,5.81-5.04,8.82s3.01,5.72,4.59,2.68h0Z"/></g><g><path class="d" d="M220.92,365.37c26.66-10.92,52.01-25.05,75.32-41.99,6.43-4.67,12.84-9.7,17.09-16.41,8.66-13.67,6.77-31.4,11.78-46.79,5.03-15.46,16.94-27.95,30.59-36.77,13.66-8.83,29.1-14.42,44.4-19.95-10.45,10.98-14.77,26.41-16.89,41.42-2.12,15.01-2.42,30.36-6.51,44.96-.94,3.36-2.11,6.72-4.21,9.51-2.8,3.71-6.98,6.09-11.11,8.22-17.88,9.27-36.93,16.21-54.51,26.07-30.02,16.83-57.04,42.57-91.27,46.17"/><path class="e" d="M221.24,366.52c16.53-6.18,32.48-13.87,47.75-22.71,7.61-4.4,15.06-9.09,22.33-14.03s14.18-9.52,19.88-15.75c5.62-6.14,8.88-13.58,10.7-21.64,1.74-7.76,2.36-15.73,3.94-23.52s4.18-14.49,8.39-20.92,9.4-11.74,15.22-16.47c13.22-10.74,29.38-17.15,45.22-22.94,2.07-.76,4.15-1.5,6.22-2.25l-2.86-4.91c-12.53,13.26-16.5,31.59-18.57,49.14-1.16,9.76-1.82,19.6-3.65,29.27-.87,4.62-1.83,9.47-3.68,13.81-1.7,3.97-4.56,6.71-8.21,8.9-4.02,2.42-8.32,4.42-12.56,6.43-4.52,2.14-9.08,4.19-13.64,6.23-8.98,4.01-17.99,7.97-26.73,12.51-15.52,8.05-29.56,18.44-44.32,27.74s-28.77,16.95-45.25,20.13c-1.9,.37-3.96,1.08-5.8,1.28-1.6,.17-2.98,1.25-2.98,2.98,0,1.48,1.37,3.15,2.98,2.98,2.27-.25,4.55-.17,6.82-.57,2.07-.36,4.13-.83,6.17-1.36,4.06-1.05,8.04-2.4,11.94-3.96,8.05-3.23,15.69-7.32,23.1-11.83,14.82-9.02,28.77-19.41,43.86-27.99,17.27-9.83,35.97-16.75,53.64-25.76,4.09-2.08,8.24-4.24,11.58-7.43,3.56-3.4,5.51-7.9,6.85-12.57,2.82-9.81,3.87-20.04,4.88-30.16,1.74-17.46,3.4-36.14,13.85-50.91,1.18-1.66,2.49-3.22,3.88-4.7,1.88-1.99,.05-5.96-2.86-4.91-16.5,5.97-33.36,12.03-47.86,22.14-12.78,8.91-23.77,20.96-28.87,35.9s-2.98,31.79-10.85,45.72c-4.03,7.14-10.61,12.35-17.1,17.15-7.08,5.23-14.35,10.21-21.79,14.91-14.9,9.42-30.52,17.85-46.56,25.16-1.99,.91-3.98,1.83-5.98,2.73-1.22,.55-.35,2.66,.92,2.18h0Z"/></g><g><path class="d" d="M245.58,421.1c10.18-4.38,22.91-.09,32.43-5.78,2.99-1.79,5.37-4.42,8.08-6.61,8.38-6.76,20.2-9,30.47-5.77,1.08,.34,2.17,.75,2.97,1.55,.6,.6,.99,1.39,1.27,2.19,1.27,3.65,.21,8-2.59,10.67-2.85,2.71-6.97,3.53-10.87,4.09-15.03,2.15-30.96,2.35-44.13,9.91-4.16,2.39-7.97,5.48-12.47,7.14s-10.14,1.54-13.45-1.93"/><path class="e" d="M245.83,421.99c5.36-2.11,11.17-1.73,16.82-1.78,5.52-.06,11.18-.48,16.06-3.29,2.71-1.56,4.95-3.79,7.3-5.82,2.12-1.83,4.43-3.38,6.95-4.61,4.9-2.4,10.44-3.44,15.88-3.12,2.66,.16,5.46,.61,7.95,1.58s2.94,3.66,2.65,6.02c-.73,5.83-6.53,7.44-11.49,8.23-11.87,1.88-24.05,2.1-35.58,5.82-3.28,1.06-6.46,2.41-9.51,4.03s-5.69,3.51-8.6,5.16c-2.62,1.48-5.45,2.8-8.5,2.94-2.78,.13-5.17-.74-7.39-2.39-1.66-1.24-4.11,1.22-2.88,2.88,1.91,2.59,4.59,3.78,7.74,4.16,2.88,.35,5.88-.09,8.57-1.14,6.15-2.39,11.05-7.07,17.1-9.71,11.97-5.21,25.43-5.53,38.17-7.3,5.9-.82,12.04-2.43,14.83-8.27,1.25-2.62,1.63-5.65,.88-8.47-.81-3.06-2.77-4.77-5.73-5.71-11.76-3.73-24.78-.43-33.87,7.69-2.62,2.34-5.12,4.81-8.43,6.16-3.12,1.27-6.56,1.69-9.89,1.96-6.7,.54-13.48,.53-19.74,3.31-.95,.42-.27,2.09,.72,1.7h0Z"/></g><g><path class="d" d="M174.44,285.08c-1.57-27.89-15.45-53.48-30.3-77.13-14.85-23.65-31.26-46.99-38.93-73.84-5.09-17.82-6.97-38.21-20.68-50.66-6.37-5.78-15.71-10.99-15.19-19.57"/><path class="e" d="M175.62,285.08c-.87-17.31-6.44-33.85-13.95-49.34-7.64-15.75-17.21-30.4-26.54-45.17-9.24-14.64-18.29-29.6-24.47-45.84-2.87-7.53-4.87-15.28-6.74-23.1-1.73-7.26-3.45-14.58-6.26-21.52s-6.5-13.15-11.96-18.08c-2.55-2.31-5.33-4.34-7.91-6.62-2.33-2.05-4.73-4.37-5.92-7.3-.54-1.32-.82-2.81-.85-4.23-.05-2.22-3.12-2.1-3.37,0-.81,6.97,5.07,12.2,9.95,16.2,2.7,2.21,5.48,4.34,7.87,6.9s4.44,5.57,6.12,8.71c7.16,13.34,8.53,28.91,13.16,43.14,5.37,16.53,13.89,31.8,23.02,46.51s19.17,29.27,27.53,44.63c8.26,15.17,15.04,31.5,17.33,48.73,.28,2.12,.49,4.26,.63,6.4,.1,1.5,2.44,1.53,2.36,0h0Z"/></g><g><path class="d" d="M193.82,329.55c9.23-14.6,18.55-29.39,23.28-45.46,4.73-16.07,4.47-33.82-4.87-48.38-9.17-14.3-27.02-26.35-25.79-42.6,1.48-19.59,29.46-29.74,38.25-47.9,17.4,22.69,35.57,48.43,29.58,75.01-2.37,10.52-8.48,20.37-9.47,31.04-1.99,21.33,16.65,41.5,13.14,62.69-2.49,15.05-15.56,27.05-28,37.99l-21.73,19.11"/><path class="e" d="M195.64,330.62c4.98-7.22,9.67-14.68,13.92-22.37s7.91-15.5,10.35-23.82c4.51-15.34,4.47-32.36-3.04-46.76-3.37-6.46-8.26-11.98-13.02-17.44-4.45-5.12-8.74-9.87-11.81-15.96-.74-1.47-1.02-2.12-1.54-3.79-.22-.72-.41-1.45-.57-2.19-.08-.37-.14-.74-.2-1.11,0-.01-.07-.54-.03-.22s-.05-.57-.05-.54c-.06-.71-.08-1.42-.06-2.13,0-.39,.03-.78,.06-1.17,.02-.23,.13-1.22,.04-.57,.18-1.29,.49-2.56,.9-3.8,.1-.31,.21-.61,.33-.91,.07-.19,.4-.94,.15-.39,.29-.64,.59-1.27,.92-1.88,.63-1.17,1.34-2.3,2.11-3.38,.2-.28,.4-.55,.6-.82,.06-.08,.37-.48,.04-.05,.09-.12,.18-.23,.27-.35,.47-.58,.95-1.15,1.44-1.71,.94-1.07,1.93-2.1,2.94-3.1,8.63-8.58,19.26-15.38,26-25.71,.76-1.16,1.44-2.37,2.05-3.61h-5.5c10.49,13.67,21.41,28.03,27.03,44.52,2.61,7.66,3.82,15.47,2.88,23.56s-5.04,16.25-7.77,24.23c-1.45,4.24-2.53,8.6-2.82,13.08-.25,3.86,.17,7.76,.91,11.55,1.5,7.62,4.58,14.79,7.35,22,1.36,3.55,2.65,7.13,3.66,10.79,.5,1.82,.94,3.66,1.27,5.51,.08,.43,.14,.86,.21,1.29,0,.04,.09,.66,.03,.21,.02,.18,.04,.37,.07,.55,.11,.98,.19,1.97,.22,2.96,.27,7.42-2.06,13.94-6.23,20.24-4.29,6.49-10.21,12.23-16.13,17.58-7,6.33-14.18,12.49-21.27,18.72l-5.62,4.94c-1.43,1.26-1.29,3.7,0,4.99,1.42,1.42,3.56,1.26,4.99,0,7.5-6.6,15.02-13.18,22.49-19.8,6.24-5.53,12.48-11.19,17.67-17.75,5.06-6.4,9.28-13.69,10.45-21.88s-.39-15.83-2.89-23.38-5.64-14.65-7.92-22.17c-.55-1.83-1.05-3.67-1.45-5.53-.2-.92-.38-1.85-.53-2.78s-.19-1.25-.29-2.43c-.34-3.97-.04-7.61,.89-11.4,2.13-8.64,6.45-16.59,8.35-25.31,1.86-8.52,1.41-17.26-.7-25.69-4.33-17.28-14.77-32.44-25.31-46.5-1.33-1.78-2.68-3.55-4.04-5.32-.71-.92-1.52-1.58-2.75-1.58-1.06,0-2.27,.59-2.75,1.58-.63,1.29-1.35,2.54-2.14,3.74-.36,.55-.73,1.08-1.12,1.61-.13,.17-.57,.76-.48,.65,.19-.25-.12,.15-.13,.16-.16,.2-.32,.4-.48,.6-1.9,2.31-4.01,4.44-6.18,6.49-4.48,4.21-9.29,8.03-13.81,12.19-4.23,3.89-8.38,8.19-11.13,13.29-2.99,5.55-4.01,11.8-2.64,17.98,1.49,6.68,5.57,12.43,9.83,17.63s9.38,10.36,13.39,15.66c4.57,6.04,7.73,12.77,9.21,20.21s1.24,15.24-.19,22.67c-3.23,16.82-11.97,31.97-20.79,46.42-1.13,1.84-2.2,3.72-3.28,5.59-1.37,2.38,2.11,4.33,3.64,2.13h0Z"/></g><g><path class="d" d="M177.19,369.86c-36.81-35.63-85.27-60.43-112.07-104.08-4.91-7.99-8.98-16.47-13.77-24.53-9.5-15.98-21.85-30.26-36.28-41.98-5.7-4.63-12.36-10.13-11.92-17.46,23.24-5.83,49.31,1.37,66.27,18.31,9.91,9.9,16.69,22.62,26.82,32.29,7.32,6.99,16.14,12.15,24.63,17.65,35.87,23.24,67.41,53.97,88.17,91.32,20.76,37.36,30.24,81.57,22.77,123.65"/><path class="e" d="M178.45,368.6c-11.02-12.09-24.06-22.24-36.86-32.36s-25.87-20.05-38.08-30.94-23.03-22.14-31.98-35.33c-5.29-7.8-9.57-16.19-14.12-24.43s-9.5-15.81-15.21-23.1-11.55-13.55-18.12-19.53c-3.16-2.88-6.51-5.51-9.75-8.29-2.79-2.38-5.69-5.01-7.25-8.4-.65-1.41-.87-2.87-.81-4.41l-2.3,3.02c22.69-5.61,48.06,1.61,64.18,18.59,9.05,9.54,15.43,21.3,24.77,30.59,9.68,9.62,21.98,16.08,33.13,23.78,20.85,14.39,39.97,31.45,56.15,50.98,16.34,19.73,29.57,42.32,37.91,66.65,8.74,25.48,12.3,52.51,9.33,79.35-.18,1.63-.42,3.26-.54,4.9-.11,1.46-.11,3.04-.36,4.47-.32,1.79,.48,3.64,2.36,4.15,1.63,.45,3.84-.55,4.15-2.36,.28-1.6,.77-3.2,1.12-4.79,.42-1.94,.66-3.91,.89-5.89,.4-3.43,.7-6.88,.89-10.33,.38-6.9,.31-13.82-.15-20.71-.93-13.83-3.38-27.58-7.22-40.89-7.51-26.03-20.26-50.33-36.75-71.78-15.96-20.76-35.05-38.8-56.18-54.24-5.31-3.88-10.74-7.58-16.28-11.12s-11.7-7.25-17.13-11.46c-10.87-8.42-18.02-20.03-26.71-30.46-8.15-9.77-18.22-17.34-30.02-22.14-11.29-4.59-23.9-6.41-36.02-4.98-3.09,.36-6.15,.89-9.17,1.64-1.37,.34-2.24,1.66-2.3,3.02-.35,8.56,6.62,14.62,12.68,19.54,6.96,5.66,13.44,11.87,19.36,18.61s11.11,13.84,15.72,21.42c5.18,8.49,9.43,17.51,14.66,25.98,8.62,13.96,19.64,26.29,31.64,37.41,12.15,11.26,25.28,21.46,38.45,31.5,6.53,4.98,13.06,9.95,19.49,15.06s12.76,10.5,19.11,15.82c1.6,1.34,3.23,2.63,4.82,3.98,1.74,1.48,4.09-.81,2.52-2.52h0Z"/></g><path class="e" d="M170.46,195.3c-7.52-21.44-10.03-44.51-7.28-67.07,1.28-10.54,3.46-21.4,8.28-30.94,2.38-4.72,5.46-8.97,9.26-12.66s8.1-6.88,12.21-10.26c8.34-6.86,17.13-16.3,15.93-27.98-.13-1.27-2.12-1.31-2.02,0,.78,10.62-6.87,19.23-14.46,25.6-4.07,3.42-8.37,6.57-12.26,10.21s-7.11,7.71-9.64,12.33c-5.08,9.27-7.48,19.84-8.98,30.22-1.62,11.19-1.98,22.54-1.05,33.8,1.05,12.72,3.7,25.28,7.92,37.33,.46,1.32,2.57,.75,2.11-.58h0Z"/><path class="e" d="M193.29,432.67c-4.4-15.16-12.47-28.91-21.08-42.02-8.15-12.42-17.26-25.47-31.18-31.87-7.18-3.3-15.72-5.02-23.45-2.67-1.4,.42-.81,2.45,.6,2.17,6.95-1.39,13.86-.66,20.41,2.02s12.46,7.25,17.41,12.46,9.32,11.38,13.41,17.48,8.34,12.65,12.04,19.27c4.19,7.51,7.8,15.35,10.29,23.6,.3,.99,1.84,.57,1.55-.43h0Z"/><path class="e" d="M100.84,346.28c9.53,1.17,19.35,2.39,28.19,6.38s15.12,10.51,20.38,18.23c2.91,4.26,5.5,8.75,8.06,13.22,.46,.8,1.69,.08,1.24-.72-4.57-8.16-9.31-16.45-16.01-23.08-6.95-6.88-15.72-10.76-25.17-12.85-5.5-1.22-11.1-1.91-16.69-2.59-.91-.11-.9,1.31,0,1.42h0Z"/><path class="e" d="M184.69,441.27c2.24-6.15,2.02-12.75,1.05-19.14s-2.43-12.94-4.33-19.19-4.35-11.98-8.05-17.16c-3.4-4.77-7.6-8.89-12.16-12.54-5.26-4.22-10.95-7.85-16.7-11.36-1.17-.71-2.19,1.08-1.06,1.82,9.55,6.26,19.51,12.44,26.72,21.49,7.77,9.76,10.78,22.34,13.08,34.35,1.34,7.02,2.05,14.36-.42,21.22-.42,1.18,1.45,1.68,1.88,.52h0Z"/></g><g id="c"><g><path class="d" d="M187.26,438.35c-1.57-11.09-3.71-22.1-6.41-32.98-1.65-6.62-3.56-13.32-7.36-18.99-8.16-12.16-23.21-17.29-37.18-21.65-9.78-3.05-19.57-6.1-29.35-9.16"/><path class="e" d="M188.53,438.35c-1.2-9.38-2.87-18.69-4.95-27.92-1.88-8.36-3.74-17.2-8.47-24.49-8.21-12.65-23.2-18.04-36.91-22.39-5.05-1.6-10.11-3.18-15.16-4.76l-7.57-2.37c-2.66-.83-5.34-1.87-8.09-2.36-1.6-.28-2.93,2.05-1.2,2.85,2.16,.99,4.46,1.6,6.72,2.31l6.63,2.06c4.5,1.4,9,2.8,13.5,4.2,7.1,2.2,14.28,4.33,21.03,7.49,6.35,2.97,12.4,6.87,16.78,12.43,5.14,6.53,7.22,14.81,9.17,22.73,2.48,10.08,4.45,20.29,6.05,30.55,.22,1.4,2.67,1.08,2.49-.34h0Z"/></g><path class="e" d="M220.77,444.29c2.77-21.56-2.97-42.99-11.99-62.45-4.64-10-10.15-19.58-16.08-28.87-6.04-9.45-12.44-18.71-19.64-27.31-13.74-16.41-31.79-28.79-43.78-46.69-2.94-4.39-5.8-8.9-9.48-12.71-2.93-3.03-6.4-5.48-10.1-7.47-7.24-3.91-15.21-6.18-22.76-9.38-7.06-3-13.95-7.03-17.77-13.94-2.56-4.64-3.75-9.89-6.14-14.61-2.17-4.3-5.71-8.1-10.28-9.82-2.18-.82-4.49-.91-6.74-.38-2.48,.59-1.41,4.27,1.04,3.79,4.28-.84,8.27,2.18,10.68,5.44,3.03,4.11,4.25,9.27,6.2,13.91,1.7,4.04,4.01,7.69,7.22,10.69,2.81,2.62,6.07,4.71,9.49,6.43,7.17,3.62,14.94,5.82,22.28,9.05,3.59,1.58,7.12,3.4,10.27,5.75,3.81,2.83,6.78,6.57,9.47,10.44,2.96,4.26,5.74,8.62,9.02,12.65s6.86,7.78,10.57,11.4c7.53,7.35,15.57,14.17,22.77,21.86,7.53,8.05,14.14,16.9,20.3,26.03s11.79,18.22,16.81,27.83c9.71,18.61,16.98,39.26,16.35,60.51-.08,2.63-.28,5.26-.59,7.87-.22,1.84,2.65,1.81,2.88,0h0Z"/><g><path class="d" d="M172.77,440.88c-20.64-52.72-72.78-91.65-129.2-96.45,21.82-12.22,49.02-11.98,72.74-4.08,23.72,7.9,44.49,22.77,63.64,38.84,10.01,8.4,19.97,17.56,25.34,29.48,5.38,11.92,5.09,27.29-3.98,36.71"/><path class="e" d="M175.43,440.15c-8.15-21.04-21.05-40.1-37.3-55.73s-36-27.86-57.31-35.5c-12-4.3-24.54-6.97-37.24-8.07l1.81,6.68c12.68-7.04,27.1-9.7,41.61-9.09,14.48,.61,29.04,4.7,42.24,10.9,13.8,6.48,26.67,15.17,38.54,24.51,5.89,4.64,11.72,9.41,17.24,14.49,5.38,4.96,10.31,10.18,14.07,16.29,1.89,3.07,3.28,5.88,4.28,8.91,.5,1.51,.91,3.06,1.23,4.62,.16,.78,.3,1.57,.41,2.36-.07-.53,.04,.36,.05,.51,.05,.49,.09,.98,.12,1.46,.1,1.58,.11,3.17,.02,4.75-.03,.42-.06,.84-.1,1.27-.02,.18-.04,.36-.06,.54,0,.02-.08,.6-.03,.24s-.04,.22-.04,.24c-.03,.18-.06,.36-.09,.53-.08,.47-.17,.94-.26,1.41-.31,1.51-.73,3-1.27,4.45-.06,.15-.44,1.07-.25,.64-.14,.32-.29,.65-.45,.97-.36,.74-.76,1.47-1.19,2.18-.68,1.12-1.47,2.74-2.25,3.55-2.65,2.8,1.58,7.05,4.24,4.24,1.12-1.19,2.68-2.48,3.73-4.04,.9-1.32,1.66-2.73,2.29-4.19,1.49-3.42,2.39-6.88,2.77-10.59,.73-7.07-.65-14.31-3.42-20.82-6.13-14.37-18.57-24.87-30.38-34.54-12.5-10.23-25.63-19.84-39.98-27.33s-29.54-12.65-45.58-14.28-31.74,.47-46.09,7.06c-1.71,.78-3.38,1.64-5.02,2.56-1.38,.77-2.06,2.54-1.65,4.05,.44,1.61,1.87,2.49,3.46,2.63,1.34,.11,2.67,.25,4,.4,.67,.08,1.33,.16,2,.24,.15,.02,.92,.12,.32,.04,.48,.07,.97,.13,1.45,.21,2.65,.39,5.29,.86,7.91,1.39,5.36,1.1,10.66,2.51,15.87,4.18,10.38,3.31,19.61,7.41,29.18,12.9,18.63,10.67,35.2,25.13,48.01,42.47,7.23,9.79,13.3,20.47,17.8,31.79,.55,1.38,1.84,2.35,3.38,1.92,1.32-.36,2.46-1.99,1.92-3.38h0Z"/></g><g><path class="d" d="M180.44,160.99l35.95-34.83c22.59-21.88,45.67-44.11,73.89-57.98"/><path class="e" d="M181.37,161.92c14.4-13.83,28.8-27.67,43.2-41.49,12.94-12.42,26.15-24.66,40.72-35.17,4.05-2.92,8.21-5.71,12.47-8.32s8.8-5.07,13.14-7.7c1.12-.68,.39-2.72-.93-2.21-8.33,3.24-15.97,8.25-23.27,13.34s-14.56,10.86-21.43,16.78c-14.23,12.26-27.51,25.56-40.94,38.68l-24.82,24.24c-1.21,1.19,.64,3.03,1.86,1.86h0Z"/></g><path class="e" d="M213.39,347.47c2.82-5.5,5.12-11.3,7.6-16.96s4.93-11.39,7.39-17.09c4.49-10.42,9.16-21.07,10-32.53,.84-11.41-3.42-22.17-4.99-33.31-.8-5.73-.39-11.22,.75-16.87s2.19-11.07,1.88-16.81c-.64-11.88-5.36-24.14-1.31-35.86,.72-2.09-2.53-2.94-3.28-.91-3.81,10.3-.62,21.32,.74,31.77,.74,5.66,.69,11.13-.37,16.75s-2.35,11.24-2.08,17.04c.52,11.13,5.04,21.61,5.65,32.71,.63,11.54-3.49,22.57-7.84,33.05-2.63,6.35-5.34,12.67-7.98,19.02-2.66,6.39-5.56,12.75-7.81,19.3-.33,.97,1.19,1.62,1.66,.7h0Z"/><g><path class="d" d="M255.9,298.61c19.6-33.25,36.96-67.79,53-102.9,2.59-5.68,5.36-11.63,10.39-15.32,2.93-2.15,6.56-3.46,8.87-6.26,3.25-3.94,3-9.58,3.2-14.69,.42-10.82,3.68-21.51,9.37-30.72"/><path class="e" d="M256.92,299.21c13.89-22.9,26.38-46.66,38.26-70.66,5.83-11.78,11.24-23.75,16.98-35.56,2.47-5.08,5.4-9.58,10.34-12.53,2.34-1.4,4.85-2.69,6.68-4.76s2.85-4.58,3.33-7.24c.56-3.13,.51-6.3,.66-9.45,.16-3.42,.61-6.82,1.35-10.17s1.75-6.65,3.02-9.85,3.02-6.31,4.6-9.45c.95-1.9-1.58-3.31-2.81-1.64-3.58,4.87-5.88,11-7.47,16.79s-2.17,11.8-2.38,17.86c-.09,2.64-.22,5.37-1.19,7.86s-2.96,4.16-5.23,5.54c-2.38,1.45-4.81,2.76-6.86,4.68s-3.69,4.22-5.09,6.62c-3.1,5.3-5.36,11.13-7.92,16.71-2.79,6.09-5.63,12.17-8.51,18.22-5.76,12.1-11.73,24.1-17.93,35.99-7.01,13.44-14.35,26.69-21.87,39.85-.76,1.32,1.25,2.49,2.04,1.19h0Z"/></g><g><path class="d" d="M376.5,227.98c-11.54,4.61-19.74,16.55-19.9,28.97-.11,8.38,3.02,17.26-.54,24.84-1.35,2.89-3.57,5.26-5.74,7.59-15.41,16.47-31.37,33.34-51.89,42.69"/><path class="e" d="M376.16,226.73c-7.66,2.87-13.93,8.82-17.59,16.11-1.85,3.68-3.01,7.63-3.41,11.73-.46,4.75,.38,9.49,.79,14.21s.39,9.54-2.12,13.69c-1.29,2.12-3,3.91-4.7,5.7s-3.31,3.48-4.97,5.22c-6.51,6.82-13.16,13.48-20.31,19.63-8,6.88-16.82,12.83-26.13,17.8-1.41,.75-.43,3.23,1.11,2.63,17.66-6.83,31.76-20.69,44.6-34.18,3.23-3.39,6.46-6.8,9.57-10.31,3.35-3.78,5.69-7.78,6.25-12.87,.53-4.78-.39-9.58-.82-14.34-.4-4.36-.25-8.61,1.03-12.82,2.68-8.87,9.25-16.13,17.71-19.85,1.32-.58,.37-2.86-.99-2.35h0Z"/></g><g><path class="d" d="M234.25,399.41c11.49-18.45,38.77-18.31,55.74-31.9,2.88-2.31,5.46-5.01,8.6-6.96,3.23-2,6.93-3.1,10.58-4.19,10.19-3.02,20.39-6.05,30.58-9.07,24.39-7.23,49.43-14.55,74.8-12.73"/><path class="e" d="M235.12,399.92c5.44-8.63,14.76-13.22,23.96-16.81s19.46-6.53,28.05-12.04c5.22-3.35,9.29-8.33,15.02-10.9,3.12-1.4,6.48-2.26,9.75-3.22l10.99-3.25c14.2-4.2,28.36-8.65,42.74-12.22,15.96-3.97,32.41-6.59,48.9-5.74,1.52,.08,1.48-2.21,0-2.34-14.83-1.3-29.57,.76-44.02,4.06s-29.12,7.92-43.57,12.22c-7.17,2.13-14.41,4.12-21.52,6.44-3.32,1.08-6.54,2.44-9.35,4.55-2.63,1.97-4.92,4.35-7.51,6.37-8.27,6.49-18.48,9.69-28.16,13.37-10.35,3.94-20.92,8.78-27.04,18.5-.69,1.1,1.05,2.11,1.74,1.02h0Z"/></g><path class="e" d="M259.49,426.6c1.47,0,2.94,.03,4.41,0,.76-.02,.76-1.16,0-1.18-1.47-.03-2.94,0-4.41,0-.76,0-.76,1.18,0,1.18h0Z"/><g><path class="d" d="M269.93,426.54c10.34-3.97,21.02-7.04,31.88-9.18"/><path class="e" d="M270.12,427.24c10.44-3.65,21.09-6.75,31.92-9.05,1.09-.23,.62-1.86-.46-1.66-10.91,2.01-21.6,5.05-31.85,9.31-.84,.35-.52,1.71,.39,1.4h0Z"/></g><path class="e" d="M189.29,440.22c-2.75-14.01-8.77-27.11-15.59-39.56-3.36-6.13-6.81-12.26-10.58-18.15s-7.77-11.16-13.01-15.43c-5.58-4.55-12.15-7.71-19.42-8.03-1.85-.08-1.8,2.69,0,2.84,13.12,1.15,22.73,11.43,29.45,21.85,3.63,5.62,6.93,11.48,10.16,17.33s6.38,11.95,9.04,18.17c3.01,7.02,5.41,14.32,6.88,21.82,.39,2,3.45,1.15,3.06-.84h0Z"/></g></svg>